<svg xmlns="http://www.w3.org/2000/svg" xmlns:xlink="http://www.w3.org/1999/xlink">
  <symbol id="arrow-down-circle" width="16" height="16" fill="currentColor" viewBox="0 0 16 16">
  <path fill-rule="evenodd" d="M1 8a7 7 0 1 0 14 0A7 7 0 0 0 1 8m15 0A8 8 0 1 1 0 8a8 8 0 0 1 16 0M8.5 4.5a.5.5 0 0 0-1 0v5.793L5.354 8.146a.5.5 0 1 0-.708.708l3 3a.5.5 0 0 0 .708 0l3-3a.5.5 0 0 0-.708-.708L8.5 10.293z"/>
  </symbol>
  <symbol id="arrow-left-circle" width="16" height="16" fill="currentColor" viewBox="0 0 16 16">
    <path fill-rule="evenodd" d="M1 8a7 7 0 1 0 14 0A7 7 0 0 0 1 8m15 0A8 8 0 1 1 0 8a8 8 0 0 1 16 0m-4.5-.5a.5.5 0 0 1 0 1H5.707l2.147 2.146a.5.5 0 0 1-.708.708l-3-3a.5.5 0 0 1 0-.708l3-3a.5.5 0 1 1 .708.708L5.707 7.5z"/>
  </symbol>
  <symbol id="arrow-right-circle" width="16" height="16" fill="currentColor" viewBox="0 0 16 16">
    <path fill-rule="evenodd" d="M1 8a7 7 0 1 0 14 0A7 7 0 0 0 1 8m15 0A8 8 0 1 1 0 8a8 8 0 0 1 16 0M4.5 7.5a.5.5 0 0 0 0 1h5.793l-2.147 2.146a.5.5 0 0 0 .708.708l3-3a.5.5 0 0 0 0-.708l-3-3a.5.5 0 1 0-.708.708L10.293 7.5z"/>
  </symbol>
  <symbol id="arrow-up-circle" width="16" height="16" fill="currentColor" viewBox="0 0 16 16">
    <path fill-rule="evenodd" d="M1 8a7 7 0 1 0 14 0A7 7 0 0 0 1 8m15 0A8 8 0 1 1 0 8a8 8 0 0 1 16 0m-7.5 3.5a.5.5 0 0 1-1 0V5.707L5.354 7.854a.5.5 0 1 1-.708-.708l3-3a.5.5 0 0 1 .708 0l3 3a.5.5 0 0 1-.708.708L8.5 5.707z"/>
  </symbol>
  <symbol id="arrows-angle-expand" width="16" height="16" fill="currentColor" viewBox="0 0 16 16">
    <path fill-rule="evenodd" d="M5.828 10.172a.5.5 0 0 0-.707 0l-4.096 4.096V11.5a.5.5 0 0 0-1 0v3.975a.5.5 0 0 0 .5.5H4.5a.5.5 0 0 0 0-1H1.732l4.096-4.096a.5.5 0 0 0 0-.707m4.344-4.344a.5.5 0 0 0 .707 0l4.096-4.096V4.5a.5.5 0 1 0 1 0V.525a.5.5 0 0 0-.5-.5H11.5a.5.5 0 0 0 0 1h2.768l-4.096 4.096a.5.5 0 0 0 0 .707"/>
  </symbol>
  <symbol id="paint-bucket" width="16" height="16" fill="currentColor" viewBox="0 0 16 16">
    <path d="M6.192 2.78c-.458-.677-.927-1.248-1.35-1.643a3 3 0 0 0-.71-.515c-.217-.104-.56-.205-.882-.02-.367.213-.427.63-.43.896-.003.304.064.664.173 1.044.196.687.556 1.528 1.035 2.402L.752 8.22c-.277.277-.269.656-.218.918.055.283.187.593.36.903.348.627.92 1.361 1.626 2.068.707.707 1.441 1.278 2.068 1.626.31.173.62.305.903.36.262.05.64.059.918-.218l5.615-5.615c.118.257.092.512.05.939-.03.292-.068.665-.073 1.176v.123h.003a1 1 0 0 0 1.993 0H14v-.057a1 1 0 0 0-.004-.117c-.055-1.25-.7-2.738-1.86-3.494a4 4 0 0 0-.211-.434c-.349-.626-.92-1.36-1.627-2.067S8.857 3.052 8.23 2.704c-.31-.172-.62-.304-.903-.36-.262-.05-.64-.058-.918.219zM4.16 1.867c.381.356.844.922 1.311 1.632l-.704.705c-.382-.727-.66-1.402-.813-1.938a3.3 3.3 0 0 1-.131-.673q.137.09.337.274m.394 3.965c.54.852 1.107 1.567 1.607 2.033a.5.5 0 1 0 .682-.732c-.453-.422-1.017-1.136-1.564-2.027l1.088-1.088q.081.181.183.365c.349.627.92 1.361 1.627 2.068.706.707 1.44 1.278 2.068 1.626q.183.103.365.183l-4.861 4.862-.068-.01c-.137-.027-.342-.104-.608-.252-.524-.292-1.186-.8-1.846-1.46s-1.168-1.32-1.46-1.846c-.147-.265-.225-.47-.251-.607l-.01-.068zm2.87-1.935a2.4 2.4 0 0 1-.241-.561c.135.033.324.11.562.241.524.292 1.186.8 1.846 1.46.45.45.83.901 1.118 1.31a3.5 3.5 0 0 0-1.066.091 11 11 0 0 1-.76-.694c-.66-.66-1.167-1.322-1.458-1.847z"/>
  </symbol>
  <symbol id="palette" width="16" height="16" fill="currentColor" viewBox="0 0 16 16">
    <path d="M8 5a1.5 1.5 0 1 0 0-3 1.5 1.5 0 0 0 0 3m4 3a1.5 1.5 0 1 0 0-3 1.5 1.5 0 0 0 0 3M5.5 7a1.5 1.5 0 1 1-3 0 1.5 1.5 0 0 1 3 0m.5 6a1.5 1.5 0 1 0 0-3 1.5 1.5 0 0 0 0 3"/>
    <path d="M16 8c0 3.15-1.866 2.585-3.567 2.07C11.42 9.763 10.465 9.473 10 10c-.603.683-.475 1.819-.351 2.92C9.826 14.495 9.996 16 8 16a8 8 0 1 1 8-8m-8 7c.611 0 .654-.171.655-.176.078-.146.124-.464.07-1.119-.014-.168-.037-.37-.061-.591-.052-.464-.112-1.005-.118-1.462-.01-.707.083-1.61.704-2.314.369-.417.845-.578 1.272-.618.404-.038.812.026 1.16.104.343.077.702.186 1.025.284l.028.008c.346.105.658.199.953.266.653.148.904.083.991.024C14.717 9.38 15 9.161 15 8a7 7 0 1 0-7 7"/>
  </symbol>
  <symbol id="pin-map" width="16" height="16" fill="currentColor" viewBox="0 0 16 16">
    <path fill-rule="evenodd" d="M3.1 11.2a.5.5 0 0 1 .4-.2H6a.5.5 0 0 1 0 1H3.75L1.5 15h13l-2.25-3H10a.5.5 0 0 1 0-1h2.5a.5.5 0 0 1 .4.2l3 4a.5.5 0 0 1-.4.8H.5a.5.5 0 0 1-.4-.8z"/>
    <path fill-rule="evenodd" d="M8 1a3 3 0 1 0 0 6 3 3 0 0 0 0-6M4 4a4 4 0 1 1 4.5 3.969V13.5a.5.5 0 0 1-1 0V7.97A4 4 0 0 1 4 3.999z"/>
  </symbol>
  <symbol id="save" width="16" height="16" fill="currentColor" viewBox="0 0 16 16">
    <path d="M2 1a1 1 0 0 0-1 1v12a1 1 0 0 0 1 1h12a1 1 0 0 0 1-1V2a1 1 0 0 0-1-1H9.5a1 1 0 0 0-1 1v7.293l2.646-2.647a.5.5 0 0 1 .708.708l-3.5 3.5a.5.5 0 0 1-.708 0l-3.5-3.5a.5.5 0 1 1 .708-.708L7.5 9.293V2a2 2 0 0 1 2-2H14a2 2 0 0 1 2 2v12a2 2 0 0 1-2 2H2a2 2 0 0 1-2-2V2a2 2 0 0 1 2-2h2.5a.5.5 0 0 1 0 1z"/>
  </symbol>
  <symbol id="pencil" width="16" height="16" fill="currentColor" viewBox="0 0 16 16">
    <path d="M12.146.146a.5.5 0 0 1 .708 0l3 3a.5.5 0 0 1 0 .708l-10 10a.5.5 0 0 1-.168.11l-5 2a.5.5 0 0 1-.65-.65l2-5a.5.5 0 0 1 .11-.168zM11.207 2.5 13.5 4.793 14.793 3.5 12.5 1.207zm1.586 3L10.5 3.207 4 9.707V10h.5a.5.5 0 0 1 .5.5v.5h.5a.5.5 0 0 1 .5.5v.5h.293zm-9.761 5.175-.106.106-1.528 3.821 3.821-1.528.106-.106A.5.5 0 0 1 5 12.5V12h-.5a.5.5 0 0 1-.5-.5V11h-.5a.5.5 0 0 1-.468-.325"/>
  </symbol>
  <symbol id="train-front" width="16" height="16" fill="currentColor" viewBox="0 0 16 16">
    <path d="M5.621 1.485c1.815-.454 2.943-.454 4.758 0 .784.196 1.743.673 2.527 1.119.688.39 1.094 1.148 1.094 1.979V13.5a1.5 1.5 0 0 1-1.5 1.5h-9A1.5 1.5 0 0 1 2 13.5V4.583c0-.831.406-1.588 1.094-1.98.784-.445 1.744-.922 2.527-1.118m5-.97C8.647.02 7.353.02 5.38.515c-.924.23-1.982.766-2.78 1.22C1.566 2.322 1 3.432 1 4.582V13.5A2.5 2.5 0 0 0 3.5 16h9a2.5 2.5 0 0 0 2.5-2.5V4.583c0-1.15-.565-2.26-1.6-2.849-.797-.453-1.855-.988-2.779-1.22ZM5 13a1 1 0 1 1-2 0 1 1 0 0 1 2 0m0 0a1 1 0 1 1 2 0 1 1 0 0 1-2 0m7 1a1 1 0 1 0-1-1 1 1 0 1 0-2 0 1 1 0 0 0 2 0 1 1 0 0 0 1 1M4.5 5a.5.5 0 0 0-.5.5v2a.5.5 0 0 0 .5.5h3V5zm4 0v3h3a.5.5 0 0 0 .5-.5v-2a.5.5 0 0 0-.5-.5zM3 5.5A1.5 1.5 0 0 1 4.5 4h7A1.5 1.5 0 0 1 13 5.5v2A1.5 1.5 0 0 1 11.5 9h-7A1.5 1.5 0 0 1 3 7.5zM6.5 2a.5.5 0 0 0 0 1h3a.5.5 0 0 0 0-1z"/>
  </symbol>
  <symbol id="trash" width="16" height="16" fill="currentColor" viewBox="0 0 16 16">
    <path d="M6.5 1h3a.5.5 0 0 1 .5.5v1H6v-1a.5.5 0 0 1 .5-.5M11 2.5v-1A1.5 1.5 0 0 0 9.5 0h-3A1.5 1.5 0 0 0 5 1.5v1H1.5a.5.5 0 0 0 0 1h.538l.853 10.66A2 2 0 0 0 4.885 16h6.23a2 2 0 0 0 1.994-1.84l.853-10.66h.538a.5.5 0 0 0 0-1zm1.958 1-.846 10.58a1 1 0 0 1-.997.92h-6.23a1 1 0 0 1-.997-.92L3.042 3.5zm-7.487 1a.5.5 0 0 1 .528.47l.5 8.5a.5.5 0 0 1-.998.06L5 5.03a.5.5 0 0 1 .47-.53Zm5.058 0a.5.5 0 0 1 .47.53l-.5 8.5a.5.5 0 1 1-.998-.06l.5-8.5a.5.5 0 0 1 .528-.47M8 4.5a.5.5 0 0 1 .5.5v8.5a.5.5 0 0 1-1 0V5a.5.5 0 0 1 .5-.5"/>
  </symbol>
  <symbol id="zoom-in" width="16" height="16" fill="currentColor" viewBox="0 0 16 16">
    <path fill-rule="evenodd" d="M6.5 12a5.5 5.5 0 1 0 0-11 5.5 5.5 0 0 0 0 11M13 6.5a6.5 6.5 0 1 1-13 0 6.5 6.5 0 0 1 13 0"/>
    <path d="M10.344 11.742q.044.06.098.115l3.85 3.85a1 1 0 0 0 1.415-1.414l-3.85-3.85a1 1 0 0 0-.115-.1 6.5 6.5 0 0 1-1.398 1.4z"/>
    <path fill-rule="evenodd" d="M6.5 3a.5.5 0 0 1 .5.5V6h2.5a.5.5 0 0 1 0 1H7v2.5a.5.5 0 0 1-1 0V7H3.5a.5.5 0 0 1 0-1H6V3.5a.5.5 0 0 1 .5-.5"/>
  </symbol>
  <symbol id="zoom-out" width="16" height="16" fill="currentColor" viewBox="0 0 16 16">
    <path fill-rule="evenodd" d="M6.5 12a5.5 5.5 0 1 0 0-11 5.5 5.5 0 0 0 0 11M13 6.5a6.5 6.5 0 1 1-13 0 6.5 6.5 0 0 1 13 0"/>
    <path d="M10.344 11.742q.044.06.098.115l3.85 3.85a1 1 0 0 0 1.415-1.414l-3.85-3.85a1 1 0 0 0-.115-.1 6.5 6.5 0 0 1-1.398 1.4z"/>
    <path fill-rule="evenodd" d="M3 6.5a.5.5 0 0 1 .5-.5h6a.5.5 0 0 1 0 1h-6a.5.5 0 0 1-.5-.5"/>
  </symbol>
  <symbol id="arrows-collapse-vertical" width="16" height="16" fill="currentColor" viewBox="0 0 16 16">
    <path d="M8 15a.5.5 0 0 1-.5-.5v-13a.5.5 0 0 1 1 0v13a.5.5 0 0 1-.5.5M0 8a.5.5 0 0 1 .5-.5h3.793L3.146 6.354a.5.5 0 1 1 .708-.708l2 2a.5.5 0 0 1 0 .708l-2 2a.5.5 0 0 1-.708-.708L4.293 8.5H.5A.5.5 0 0 1 0 8m11.707.5 1.147 1.146a.5.5 0 0 1-.708.708l-2-2a.5.5 0 0 1 0-.708l2-2a.5.5 0 0 1 .708.708L11.707 7.5H15.5a.5.5 0 0 1 0 1z"/>
  </symbol>
  <symbol id="arrows-expand-vertical" width="16" height="16" fill="currentColor" viewBox="0 0 16 16">
    <path d="M8 15a.5.5 0 0 1-.5-.5v-13a.5.5 0 0 1 1 0v13a.5.5 0 0 1-.5.5M.146 8.354a.5.5 0 0 1 0-.708l2-2a.5.5 0 1 1 .708.708L1.707 7.5H5.5a.5.5 0 0 1 0 1H1.707l1.147 1.146a.5.5 0 0 1-.708.708zM10 8a.5.5 0 0 1 .5-.5h3.793l-1.147-1.146a.5.5 0 0 1 .708-.708l2 2a.5.5 0 0 1 0 .708l-2 2a.5.5 0 0 1-.708-.708L14.293 8.5H10.5A.5.5 0 0 1 10 8"/>  
  </symbol>
  <symbol id="arrows-move" width="16" height="16" fill="currentColor" viewBox="0 0 16 16">
    <path fill-rule="evenodd" d="M7.646.146a.5.5 0 0 1 .708 0l2 2a.5.5 0 0 1-.708.708L8.5 1.707V5.5a.5.5 0 0 1-1 0V1.707L6.354 2.854a.5.5 0 1 1-.708-.708zM8 10a.5.5 0 0 1 .5.5v3.793l1.146-1.147a.5.5 0 0 1 .708.708l-2 2a.5.5 0 0 1-.708 0l-2-2a.5.5 0 0 1 .708-.708L7.5 14.293V10.5A.5.5 0 0 1 8 10M.146 8.354a.5.5 0 0 1 0-.708l2-2a.5.5 0 1 1 .708.708L1.707 7.5H5.5a.5.5 0 0 1 0 1H1.707l1.147 1.146a.5.5 0 0 1-.708.708zM10 8a.5.5 0 0 1 .5-.5h3.793l-1.147-1.146a.5.5 0 0 1 .708-.708l2 2a.5.5 0 0 1 0 .708l-2 2a.5.5 0 0 1-.708-.708L14.293 8.5H10.5A.5.5 0 0 1 10 8"/>
  </symbol>
  <symbol id="eraser" width="16" height="16" fill="currentColor" viewBox="0 0 16 16">
    <path d="M8.086 2.207a2 2 0 0 1 2.828 0l3.879 3.879a2 2 0 0 1 0 2.828l-5.5 5.5A2 2 0 0 1 7.879 15H5.12a2 2 0 0 1-1.414-.586l-2.5-2.5a2 2 0 0 1 0-2.828zm2.121.707a1 1 0 0 0-1.414 0L4.16 7.547l5.293 5.293 4.633-4.633a1 1 0 0 0 0-1.414zM8.746 13.547 3.453 8.254 1.914 9.793a1 1 0 0 0 0 1.414l2.5 2.5a1 1 0 0 0 .707.293H7.88a1 1 0 0 0 .707-.293z"/>
  </symbol>
  <symbol id="file-image" width="16" height="16" fill="currentColor" viewBox="0 0 16 16">
    <path d="M8.002 5.5a1.5 1.5 0 1 1-3 0 1.5 1.5 0 0 1 3 0"/>
    <path d="M12 0H4a2 2 0 0 0-2 2v12a2 2 0 0 0 2 2h8a2 2 0 0 0 2-2V2a2 2 0 0 0-2-2M3 2a1 1 0 0 1 1-1h8a1 1 0 0 1 1 1v8l-2.083-2.083a.5.5 0 0 0-.76.063L8 11 5.835 9.7a.5.5 0 0 0-.611.076L3 12z"/>
  </symbol>
  <symbol id="grid" width="16" height="16" fill="currentColor" viewBox="0 0 16 16">
    <path d="M0 1.5A1.5 1.5 0 0 1 1.5 0h13A1.5 1.5 0 0 1 16 1.5v13a1.5 1.5 0 0 1-1.5 1.5h-13A1.5 1.5 0 0 1 0 14.5zM1.5 1a.5.5 0 0 0-.5.5V5h4V1zM5 6H1v4h4zm1 4h4V6H6zm-1 1H1v3.5a.5.5 0 0 0 .5.5H5zm1 0v4h4v-4zm5 0v4h3.5a.5.5 0 0 0 .5-.5V11zm0-1h4V6h-4zm0-5h4V1.5a.5.5 0 0 0-.5-.5H11zm-1 0V1H6v4z"/>
  </symbol>
  <symbol id="plus-circle" width="16" height="16" fill="currentColor" viewBox="0 0 16 16">
    <path d="M8 15A7 7 0 1 1 8 1a7 7 0 0 1 0 14m0 1A8 8 0 1 0 8 0a8 8 0 0 0 0 16"/>
    <path d="M8 4a.5.5 0 0 1 .5.5v3h3a.5.5 0 0 1 0 1h-3v3a.5.5 0 0 1-1 0v-3h-3a.5.5 0 0 1 0-1h3v-3A.5.5 0 0 1 8 4"/>
  </symbol>
  <symbol id="postage" width="16" height="16" fill="currentColor" viewBox="0 0 16 16">
    <path d="M4.75 3a.75.75 0 0 0-.75.75v8.5c0 .414.336.75.75.75h6.5a.75.75 0 0 0 .75-.75v-8.5a.75.75 0 0 0-.75-.75zM11 12H5V4h6z"/>
    <path d="M3.5 1a1 1 0 0 0 1-1h1a1 1 0 0 0 2 0h1a1 1 0 0 0 2 0h1a1 1 0 1 0 2 0H15v1a1 1 0 1 0 0 2v1a1 1 0 1 0 0 2v1a1 1 0 1 0 0 2v1a1 1 0 1 0 0 2v1a1 1 0 1 0 0 2v1h-1.5a1 1 0 1 0-2 0h-1a1 1 0 1 0-2 0h-1a1 1 0 1 0-2 0h-1a1 1 0 1 0-2 0H1v-1a1 1 0 1 0 0-2v-1a1 1 0 1 0 0-2V9a1 1 0 1 0 0-2V6a1 1 0 0 0 0-2V3a1 1 0 0 0 0-2V0h1.5a1 1 0 0 0 1 1M3 3v10a1 1 0 0 0 1 1h8a1 1 0 0 0 1-1V3a1 1 0 0 0-1-1H4a1 1 0 0 0-1 1"/>
  </symbol>
  <symbol id="window-desktop" width="16" height="16" fill="currentColor" viewBox="0 0 16 16">
    <path d="M3.5 11a.5.5 0 0 0-.5.5v1a.5.5 0 0 0 .5.5h9a.5.5 0 0 0 .5-.5v-1a.5.5 0 0 0-.5-.5z"/>
    <path d="M2.375 1A2.366 2.366 0 0 0 0 3.357v9.286A2.366 2.366 0 0 0 2.375 15h11.25A2.366 2.366 0 0 0 16 12.643V3.357A2.366 2.366 0 0 0 13.625 1zM1 3.357C1 2.612 1.611 2 2.375 2h11.25C14.389 2 15 2.612 15 3.357V4H1zM1 5h14v7.643c0 .745-.611 1.357-1.375 1.357H2.375A1.366 1.366 0 0 1 1 12.643z"/>
  </symbol>
  <symbol id="calendar-date" width="16" height="16" fill="currentColor" viewBox="0 0 16 16">
    <path d="M6.445 11.688V6.354h-.633A13 13 0 0 0 4.5 7.16v.695c.375-.257.969-.62 1.258-.777h.012v4.61zm1.188-1.305c.047.64.594 1.406 1.703 1.406 1.258 0 2-1.066 2-2.871 0-1.934-.781-2.668-1.953-2.668-.926 0-1.797.672-1.797 1.809 0 1.16.824 1.77 1.676 1.77.746 0 1.23-.376 1.383-.79h.027c-.004 1.316-.461 2.164-1.305 2.164-.664 0-1.008-.45-1.05-.82zm2.953-2.317c0 .696-.559 1.18-1.184 1.18-.601 0-1.144-.383-1.144-1.2 0-.823.582-1.21 1.168-1.21.633 0 1.16.398 1.16 1.23"/>
    <path d="M3.5 0a.5.5 0 0 1 .5.5V1h8V.5a.5.5 0 0 1 1 0V1h1a2 2 0 0 1 2 2v11a2 2 0 0 1-2 2H2a2 2 0 0 1-2-2V3a2 2 0 0 1 2-2h1V.5a.5.5 0 0 1 .5-.5M1 4v10a1 1 0 0 0 1 1h12a1 1 0 0 0 1-1V4z"/>
  </symbol>
  <symbol id="postage-heart" width="16" height="16" fill="currentColor" viewBox="0 0 16 16">
    <path d="M3.5 1a1 1 0 0 0 1-1h1a1 1 0 0 0 2 0h1a1 1 0 0 0 2 0h1a1 1 0 1 0 2 0H15v1a1 1 0 1 0 0 2v1a1 1 0 1 0 0 2v1a1 1 0 1 0 0 2v1a1 1 0 1 0 0 2v1a1 1 0 1 0 0 2v1h-1.5a1 1 0 1 0-2 0h-1a1 1 0 1 0-2 0h-1a1 1 0 1 0-2 0h-1a1 1 0 1 0-2 0H1v-1a1 1 0 1 0 0-2v-1a1 1 0 1 0 0-2V9a1 1 0 1 0 0-2V6a1 1 0 0 0 0-2V3a1 1 0 0 0 0-2V0h1.5a1 1 0 0 0 1 1M3 3v10a1 1 0 0 0 1 1h8a1 1 0 0 0 1-1V3a1 1 0 0 0-1-1H4a1 1 0 0 0-1 1"/>
    <path d="M8 11C2.175 7.236 6.336 4.31 8 5.982 9.664 4.309 13.825 7.236 8 11"/>
  </symbol>
  <symbol id="life-preserver" width="16" height="16" fill="currentColor" viewBox="0 0 16 16">
    <path d="M8 16A8 8 0 1 0 8 0a8 8 0 0 0 0 16m6.43-5.228a7.03 7.03 0 0 1-3.658 3.658l-1.115-2.788a4 4 0 0 0 1.985-1.985zM5.228 14.43a7.03 7.03 0 0 1-3.658-3.658l2.788-1.115a4 4 0 0 0 1.985 1.985zm9.202-9.202-2.788 1.115a4 4 0 0 0-1.985-1.985l1.115-2.788a7.03 7.03 0 0 1 3.658 3.658m-8.087-.87a4 4 0 0 0-1.985 1.985L1.57 5.228A7.03 7.03 0 0 1 5.228 1.57zM8 11a3 3 0 1 1 0-6 3 3 0 0 1 0 6"/>
  </symbol>
  <symbol id="style-wmata" width="64" height="48" viewBox="0 0 6 4">
    <circle cx="1.75" cy="2.25" r="1.2" fill="#000"/>
    <circle cx="1.75" cy="2.25" r=".9" fill="#fff"/>
    <circle cx="1.75" cy="2.25" r=".6" fill="#000"/>
    <circle cx="1.75" cy="2.25" r=".3" fill="#fff"/>

    <circle cx="4.75" cy="2.25" r=".6" fill="#000"/>
    <circle cx="4.75" cy="2.25" r=".3" fill="#fff"/>
  </symbol>
  <symbol id="style-circles-thin" width="64" height="48" viewBox="0 0 6 4">
    <circle cx="1.5" cy="1" r="0.75" fill="#fff" stroke="#000" stroke-width="0.2"/>
    <circle cx="4.5" cy="1" r="0.75" fill="#fff" stroke="#000" stroke-width="0.1"/>

    <line x1="2.25" x2="2.25" y1="2.25" y2="3.75" stroke="#bd1038" stroke-width="0.75" stroke-linecap="round" stroke-linejoin="round"/>
    <line x1="3" x2="3" y1="2.25" y2="3.75" stroke="#0896d7" stroke-width="0.75" stroke-linecap="round" stroke-linejoin="round"/>
    <line x1="3.75" x2="3.75" y1="2.25" y2="3.75" stroke="#00b251" stroke-width="0.75" stroke-linecap="round" stroke-linejoin="round"/>

    <rect x="1.5" y="2.5" width="3" height="1" fill="#fff" stroke="#000" stroke-width="0.1" rx="0.5"/>
  </symbol>
  <symbol id="style-circles-lg" width="64" height="48" viewBox="0 0 6 4">
    <circle cx="1.75" cy="2" r="1.2" fill="#0896d7"/>
    <circle cx="1.75" cy="2" r=".9" fill="#fff"/>
    <circle cx="1.75" cy="2" r=".6" fill="#0896d7"/>
    <circle cx="1.75" cy="2" r=".3" fill="#fff"/>

    <circle cx="4.75" cy="2" r=".6" fill="#0896d7"/>
    <circle cx="4.75" cy="2" r=".3" fill="#fff"/>
  </symbol>
  <symbol id="style-circles-md" width="64" height="48" viewBox="0 0 6 4">
    <circle cx="1.5" cy="2" r="0.5" fill="#fff"/>
    <circle cx="1.5" cy="2" r="0.25" fill="#0896d7"/>

    <circle cx="3" cy="2" r="0.5" fill="#0896d7"/>

    <circle cx="4.5" cy="2" r="0.5" fill="#0896d7"/>
    <circle cx="4.5" cy="2" r="0.25" fill="#fff"/>
  </symbol>
  <symbol id="style-circles-sm" width="64" height="48" viewBox="0 0 6 4">
    <circle cx="1.5" cy="2" r="0.4" fill="#fff"/>
    <circle cx="1.5" cy="2" r="0.2" fill="#0896d7"/>

    <circle cx="3" cy="2" r="0.4" fill="#0896d7"/>

    <circle cx="4.5" cy="2" r="0.4" fill="#0896d7"/>
    <circle cx="4.5" cy="2" r="0.2" fill="#fff"/>
  </symbol>
  <symbol id="style-rect" width="64" height="48" viewBox="0 0 6 4">
    <rect x="1" y="0.75" width="1" height="1" fill="#fff" stroke="#000" stroke-width="0.2" transform="rotate(-45 1 0.75)"/>
    <rect x="4.5" y="0.25" width="0.5" height="1" fill="#fff" stroke="#000" stroke-width="0.1" transform="rotate(45 4.5 0.25)"/>

    <line x1="2.25" x2="2.25" y1="2.25" y2="3.75" stroke="#bd1038" stroke-width="0.75" stroke-linecap="round" stroke-linejoin="round"/>
    <line x1="3" x2="3" y1="2.25" y2="3.75" stroke="#0896d7" stroke-width="0.75" stroke-linecap="round" stroke-linejoin="round"/>
    <line x1="3.75" x2="3.75" y1="2.25" y2="3.75" stroke="#00b251" stroke-width="0.75" stroke-linecap="round" stroke-linejoin="round"/>

    <rect x="1.5" y="2.5" width="3" height="1" fill="#fff" stroke="#000" stroke-width="0.1"/>
  </symbol>
  <symbol id="style-rect-round" width="64" height="48" viewBox="0 0 6 4">
    <rect x="1" y="0.75" width="1" height="1" fill="#fff" stroke="#000" stroke-width="0.2" transform="rotate(-45 1 0.75)" rx="0.125"/>
    <rect x="4.5" y="0.25" width="0.5" height="1" fill="#fff" stroke="#000" stroke-width="0.1" transform="rotate(45 4.5 0.25)" rx="0.125"/>

    <line x1="2.25" x2="2.25" y1="2.25" y2="3.75" stroke="#bd1038" stroke-width="0.75" stroke-linecap="round" stroke-linejoin="round"/>
    <line x1="3" x2="3" y1="2.25" y2="3.75" stroke="#0896d7" stroke-width="0.75" stroke-linecap="round" stroke-linejoin="round"/>
    <line x1="3.75" x2="3.75" y1="2.25" y2="3.75" stroke="#00b251" stroke-width="0.75" stroke-linecap="round" stroke-linejoin="round"/>

    <rect x="1.5" y="2.5" width="3" height="1" fill="#fff" stroke="#000" stroke-width="0.1" rx="0.5"/>
  </symbol>
  <symbol id="tags" width="16" height="16" fill="currentColor" viewBox="0 0 16 16">
    <path d="M3 2v4.586l7 7L14.586 9l-7-7zM2 2a1 1 0 0 1 1-1h4.586a1 1 0 0 1 .707.293l7 7a1 1 0 0 1 0 1.414l-4.586 4.586a1 1 0 0 1-1.414 0l-7-7A1 1 0 0 1 2 6.586z"/>
    <path d="M5.5 5a.5.5 0 1 1 0-1 .5.5 0 0 1 0 1m0 1a1.5 1.5 0 1 0 0-3 1.5 1.5 0 0 0 0 3M1 7.086a1 1 0 0 0 .293.707L8.75 15.25l-.043.043a1 1 0 0 1-1.414 0l-7-7A1 1 0 0 1 0 7.586V3a1 1 0 0 1 1-1z"/>
  </symbol>
  <symbol id="ruler" width="16" height="16" fill="currentColor" viewBox="0 0 16 16">
    <path d="M1 0a1 1 0 0 0-1 1v14a1 1 0 0 0 1 1h5v-1H2v-1h4v-1H4v-1h2v-1H2v-1h4V9H4V8h2V7H2V6h4V2h1v4h1V4h1v2h1V2h1v4h1V4h1v2h1V2h1v4h1V1a1 1 0 0 0-1-1z"/>
  </symbol>

  <!-- Add more as needed -->
  <symbol id="" width="16" height="16" fill="currentColor" viewBox="0 0 16 16">
    
  </symbol>
</svg>